<?xml version="1.0" encoding="utf-8"?>
<!-- Generator: Adobe Illustrator 15.0.0, SVG Export Plug-In . SVG Version: 6.00 Build 0)  -->
<!DOCTYPE svg PUBLIC "-//W3C//DTD SVG 1.1//EN" "http://www.w3.org/Graphics/SVG/1.1/DTD/svg11.dtd">
<svg version="1.1" xmlns="http://www.w3.org/2000/svg" xmlns:xlink="http://www.w3.org/1999/xlink" x="0px" y="0px" width="35px"
	 height="35px" viewBox="0 0 35 35" enable-background="new 0 0 35 35" xml:space="preserve">
<g id="Layer_2">
	<rect fill="#8B5E3C" width="35" height="35"/>
	<line fill="none" stroke="#000000" stroke-width="0.25" stroke-miterlimit="10" x1="0" y1="1.723" x2="35" y2="1.723"/>
	<line fill="none" stroke="#000000" stroke-width="0.25" stroke-miterlimit="10" x1="0" y1="3.723" x2="35" y2="3.723"/>
	<line fill="none" stroke="#000000" stroke-width="0.25" stroke-miterlimit="10" x1="0" y1="5.723" x2="35" y2="5.723"/>
	<line fill="none" stroke="#000000" stroke-width="0.25" stroke-miterlimit="10" x1="0" y1="7.723" x2="35" y2="7.723"/>
	<line fill="none" stroke="#000000" stroke-width="0.25" stroke-miterlimit="10" x1="0" y1="9.723" x2="35" y2="9.723"/>
	<line fill="none" stroke="#000000" stroke-width="0.25" stroke-miterlimit="10" x1="0" y1="11.723" x2="35" y2="11.723"/>
	<line fill="none" stroke="#000000" stroke-width="0.25" stroke-miterlimit="10" x1="0" y1="13.723" x2="35" y2="13.723"/>
	<line fill="none" stroke="#000000" stroke-width="0.25" stroke-miterlimit="10" x1="0" y1="15.723" x2="35" y2="15.723"/>
	<line fill="none" stroke="#000000" stroke-width="0.25" stroke-miterlimit="10" x1="0" y1="17.723" x2="35" y2="17.723"/>
	<line fill="none" stroke="#000000" stroke-width="0.25" stroke-miterlimit="10" x1="0" y1="19.723" x2="35" y2="19.723"/>
	<line fill="none" stroke="#000000" stroke-width="0.25" stroke-miterlimit="10" x1="0" y1="21.723" x2="35" y2="21.723"/>
	<line fill="none" stroke="#000000" stroke-width="0.25" stroke-miterlimit="10" x1="0" y1="23.723" x2="35" y2="23.723"/>
	<line fill="none" stroke="#000000" stroke-width="0.25" stroke-miterlimit="10" x1="0" y1="25.723" x2="35" y2="25.723"/>
	<line fill="none" stroke="#000000" stroke-width="0.25" stroke-miterlimit="10" x1="0" y1="27.723" x2="35" y2="27.723"/>
	<line fill="none" stroke="#000000" stroke-width="0.25" stroke-miterlimit="10" x1="0" y1="29.723" x2="35" y2="29.723"/>
	<line fill="none" stroke="#000000" stroke-width="0.25" stroke-miterlimit="10" x1="0" y1="31.723" x2="35" y2="31.723"/>
	<line fill="none" stroke="#000000" stroke-width="0.25" stroke-miterlimit="10" x1="0" y1="33.723" x2="35" y2="33.723"/>
</g>
<g id="Layer_1">
	<g id="XMLID_1_">
		<g>
			<path d="M31.53,34.5H31.52H3.57C3.65,20.31,7.18,8.91,11.53,8.91V8.87H23.57v0.04C27.92,8.91,31.45,20.31,31.53,34.5z"/>
		</g>
		<g>
			<path fill="none" stroke="#000000" stroke-miterlimit="10" d="M3.57,35c0-0.17,0-0.34,0-0.5C3.65,20.31,7.18,8.91,11.53,8.91"/>
			<path fill="none" stroke="#000000" stroke-miterlimit="10" d="M31.53,35c0-0.17,0-0.34,0-0.5c-0.08-14.19-3.61-25.59-7.96-25.59"
				/>
			<polyline fill="none" stroke="#000000" stroke-miterlimit="10" points="11.33,8.87 11.53,8.87 23.57,8.87 23.68,8.87 			"/>
			<polyline fill="none" stroke="#000000" stroke-miterlimit="10" points="3.49,34.5 3.57,34.5 31.52,34.5 			"/>
		</g>
	</g>
</g>
</svg>
